<?xml version="1.0" standalone="no"?>
<!DOCTYPE svg PUBLIC "-//W3C//DTD SVG 20010904//EN"
 "http://www.w3.org/TR/2001/REC-SVG-20010904/DTD/svg10.dtd">
<svg version="1.0" xmlns="http://www.w3.org/2000/svg"
 width="700.000000pt" height="700.000000pt" viewBox="0 0 700.000000 700.000000"
 preserveAspectRatio="xMidYMid meet">
<metadata>
Created by potrace 1.14, written by Peter Selinger 2001-2017
</metadata>
<g transform="translate(0.000000,700.000000) scale(0.100000,-0.100000)"
fill="#000000" stroke="none">
<path d="M2170 6521 c-49 -15 -88 -41 -121 -80 -33 -38 -54 -85 -281 -646 -38
-93 -73 -179 -78 -190 -5 -11 -35 -83 -66 -160 -76 -189 -155 -384 -351 -865
-91 -223 -203 -499 -250 -615 -46 -115 -90 -223 -97 -240 -8 -16 -33 -77 -56
-135 -23 -58 -48 -118 -55 -135 -7 -16 -56 -136 -108 -265 -53 -129 -176 -433
-275 -675 -98 -242 -184 -455 -190 -474 -19 -53 -15 -136 8 -184 39 -80 71
-106 205 -162 50 -20 104 -43 120 -51 34 -14 84 -36 165 -69 155 -64 379 -158
405 -170 17 -7 118 -50 225 -95 107 -44 209 -87 225 -94 17 -8 86 -37 155 -66
69 -29 139 -58 155 -65 38 -17 1011 -427 1214 -512 124 -52 165 -64 208 -64
54 0 118 24 603 231 74 32 218 92 320 135 102 42 199 83 216 90 17 8 217 93
445 189 228 95 439 185 469 198 77 35 122 84 160 176 18 42 38 91 45 107 7 17
46 111 85 210 40 99 78 194 85 210 8 17 48 116 90 220 43 105 113 278 157 385
44 107 123 301 175 430 95 235 186 458 203 495 4 11 36 90 71 175 34 85 86
216 116 290 30 74 58 142 63 151 4 9 27 64 50 124 32 80 43 123 43 164 1 104
-55 188 -158 236 -27 13 -207 90 -400 170 -192 81 -363 153 -380 160 -16 8
-502 212 -1080 454 -577 243 -1063 448 -1080 456 -16 8 -100 43 -185 78 -85
36 -301 126 -480 202 -179 75 -345 145 -370 155 -25 10 -83 35 -130 55 -172
74 -224 86 -290 66z m445 -677 c127 -53 248 -104 270 -114 22 -10 252 -107
510 -215 259 -109 484 -203 500 -210 31 -14 431 -183 710 -300 88 -37 203 -85
255 -107 52 -23 138 -59 190 -81 175 -74 285 -120 352 -148 36 -16 69 -29 72
-29 3 0 29 -11 58 -24 52 -24 170 -74 463 -196 83 -34 152 -64 154 -66 3 -3
-177 -458 -210 -529 -5 -11 -56 -137 -114 -280 -194 -477 -227 -559 -275 -675
-26 -63 -71 -173 -100 -245 -28 -71 -58 -143 -65 -160 -7 -16 -48 -115 -90
-220 -129 -316 -131 -320 -144 -317 -12 2 -883 367 -936 392 -112 51 -249 102
-287 107 -71 9 -132 -13 -189 -66 -53 -50 -27 9 -456 -1046 -47 -115 -87 -213
-89 -217 -4 -7 -109 35 -439 175 -110 46 -256 108 -325 137 -300 126 -387 162
-420 177 -19 9 -60 26 -90 39 -97 39 -655 274 -735 309 -16 7 -70 30 -120 50
-49 21 -112 47 -140 60 -27 12 -66 28 -85 35 -19 7 -36 14 -37 15 -3 1 33 97
52 140 12 27 152 368 292 715 180 444 357 879 368 905 7 17 39 93 70 170 155
382 317 782 325 800 5 11 30 72 56 135 25 63 52 129 59 145 7 17 32 77 55 135
23 58 46 114 51 125 8 19 93 229 190 468 23 59 48 107 54 107 5 0 114 -43 240
-96z m1908 -4201 c85 -36 114 -53 105 -60 -7 -5 -56 -27 -108 -48 -52 -21
-108 -44 -125 -51 -109 -49 -600 -253 -603 -250 -3 4 159 408 193 483 8 17 15
33 15 36 0 2 9 25 20 49 l20 46 182 -78 c101 -43 236 -100 301 -127z"/>
<path d="M4310 3930 c-141 -60 -613 -260 -665 -281 -16 -7 -33 -12 -37 -11 -5
1 -8 -3 -8 -8 0 -6 -6 -10 -12 -10 -12 0 -356 -141 -390 -160 -16 -9 -41 44
-196 433 -31 78 -37 87 -56 81 -36 -12 -421 -176 -429 -184 -5 -4 22 -81 59
-171 36 -90 80 -198 96 -239 16 -41 36 -88 43 -105 28 -65 37 -86 101 -245 36
-91 73 -181 83 -201 l16 -35 325 137 c179 76 341 144 360 152 19 9 259 110
533 225 274 115 500 212 503 214 4 5 -173 449 -184 459 -4 4 -68 -19 -142 -51z"/>
</g>
</svg>
